<svg xmlns="http://www.w3.org/2000/svg" xmlns:xlink="http://www.w3.org/1999/xlink" width="512" zoomAndPan="magnify" viewBox="0 0 384 383.999986" height="512" preserveAspectRatio="xMidYMid meet" version="1.0"><defs><g/><clipPath id="1b04acf758"><rect x="0" width="91" y="0" height="108"/></clipPath><clipPath id="da6e51a906"><path d="M 0.878906 0.398438 L 107 0.398438 L 107 232 L 0.878906 232 Z M 0.878906 0.398438 " clip-rule="nonzero"/></clipPath><clipPath id="3eb8b20ccb"><rect x="0" width="107" y="0" height="232"/></clipPath><clipPath id="4002d87556"><path d="M 118 0.398438 L 176 0.398438 L 176 232 L 118 232 Z M 118 0.398438 " clip-rule="nonzero"/></clipPath><clipPath id="5ab70c4647"><rect x="0" width="58" y="0" height="232"/></clipPath><clipPath id="b76959ebf2"><rect x="0" width="107" y="0" height="199"/></clipPath><clipPath id="49f143884d"><path d="M 122 171 L 284.800781 171 L 284.800781 370 L 122 370 Z M 122 171 " clip-rule="nonzero"/></clipPath><clipPath id="260cf9e6dc"><rect x="0" width="163" y="0" height="199"/></clipPath><clipPath id="a174c4cc39"><rect x="0" width="285" y="0" height="370"/></clipPath></defs><g transform="matrix(1, 0, 0, 1, 50, 14)"><g clip-path="url(#a174c4cc39)"><g transform="matrix(1, 0, 0, 1, 188, 89)"><g clip-path="url(#1b04acf758)"><g fill="#ffffff" fill-opacity="1"><g transform="translate(0.829279, 77.186759)"><g><path d="M 7.65625 -43.640625 L 7.65625 -59.890625 L 22.71875 -59.890625 L 22.71875 -43.640625 L 31.90625 -43.640625 L 31.90625 -32.15625 L 22.71875 -32.15625 L 22.71875 -18.296875 C 22.71875 -14.265625 23.851562 -12.25 26.125 -12.25 C 26.6875 -12.25 27.28125 -12.363281 27.90625 -12.59375 C 28.53125 -12.820312 29.015625 -13.046875 29.359375 -13.265625 L 29.859375 -13.609375 L 33.609375 -1.453125 C 30.367188 0.367188 26.679688 1.28125 22.546875 1.28125 C 19.710938 1.28125 17.273438 0.785156 15.234375 -0.203125 C 13.191406 -1.203125 11.644531 -2.535156 10.59375 -4.203125 C 9.539062 -5.878906 8.785156 -7.640625 8.328125 -9.484375 C 7.878906 -11.328125 7.65625 -13.300781 7.65625 -15.40625 L 7.65625 -32.15625 L 1.359375 -32.15625 L 1.359375 -43.640625 Z M 7.65625 -43.640625 "/></g></g></g><g fill="#ffffff" fill-opacity="1"><g transform="translate(34.434818, 77.186759)"><g><path d="M 16.171875 -43.640625 L 26.796875 -19.90625 L 37.4375 -43.640625 L 55.296875 -43.640625 L 31.90625 0 L 21.6875 0 L -1.703125 -43.640625 Z M 16.171875 -43.640625 "/></g></g></g></g></g><g clip-path="url(#da6e51a906)"><g><g clip-path="url(#3eb8b20ccb)"><g fill="#ffffff" fill-opacity="1"><g transform="translate(1.702535, 166.647019)"><g><path d="M 99.109375 -152.265625 L 99.109375 -121.8125 L 45.765625 -121.8125 L 45.765625 -91.546875 L 95.046875 -91.546875 L 95.046875 -61.09375 L 45.765625 -61.09375 L 45.765625 0 L 11.078125 0 L 11.078125 -152.265625 Z M 99.109375 -152.265625 "/></g></g></g></g></g></g><g clip-path="url(#4002d87556)"><g transform="matrix(1, 0, 0, 1, 118, 0)"><g clip-path="url(#5ab70c4647)"><g fill="#ffffff" fill-opacity="1"><g transform="translate(0.480492, 166.647019)"><g><path d="M 45.765625 -152.265625 L 45.765625 0 L 11.078125 0 L 11.078125 -152.265625 Z M 45.765625 -152.265625 "/></g></g></g></g></g></g><g transform="matrix(1, 0, 0, 1, 1, 171)"><g clip-path="url(#b76959ebf2)"><g fill="#ffffff" fill-opacity="1"><g transform="translate(0.705193, 166.756468)"><g><path d="M 99.109375 -152.265625 L 99.109375 -121.8125 L 45.765625 -121.8125 L 45.765625 -91.546875 L 95.046875 -91.546875 L 95.046875 -61.09375 L 45.765625 -61.09375 L 45.765625 0 L 11.078125 0 L 11.078125 -152.265625 Z M 99.109375 -152.265625 "/></g></g></g></g></g><g clip-path="url(#49f143884d)"><g transform="matrix(1, 0, 0, 1, 122, 171)"><g clip-path="url(#260cf9e6dc)"><g fill="#ffffff" fill-opacity="1"><g transform="translate(0.271817, 166.756468)"><g><path d="M 4.25 -76.21875 C 4.25 -98.25 11.753906 -116.890625 26.765625 -132.140625 C 41.773438 -147.398438 59.859375 -155.03125 81.015625 -155.03125 C 102.304688 -155.03125 120.394531 -147.429688 135.28125 -132.234375 C 150.164062 -117.046875 157.609375 -98.375 157.609375 -76.21875 C 157.609375 -53.945312 150.285156 -35.210938 135.640625 -20.015625 C 121.003906 -4.828125 102.796875 2.765625 81.015625 2.765625 C 58.742188 2.765625 40.378906 -4.769531 25.921875 -19.84375 C 11.472656 -34.914062 4.25 -53.707031 4.25 -76.21875 Z M 41.71875 -76.21875 C 41.71875 -68.226562 42.945312 -60.941406 45.40625 -54.359375 C 47.863281 -47.773438 52.164062 -42.207031 58.3125 -37.65625 C 64.46875 -33.101562 72.035156 -30.828125 81.015625 -30.828125 C 93.941406 -30.828125 103.695312 -35.253906 110.28125 -44.109375 C 116.863281 -52.972656 120.15625 -63.675781 120.15625 -76.21875 C 120.15625 -88.644531 116.800781 -99.316406 110.09375 -108.234375 C 103.382812 -117.160156 93.691406 -121.625 81.015625 -121.625 C 68.472656 -121.625 58.785156 -117.160156 51.953125 -108.234375 C 45.128906 -99.316406 41.71875 -88.644531 41.71875 -76.21875 Z M 41.71875 -76.21875 "/></g></g></g></g></g></g></g></g></svg>