<svg xmlns="http://www.w3.org/2000/svg" xmlns:xlink="http://www.w3.org/1999/xlink" width="800" zoomAndPan="magnify" viewBox="0 0 600 225" height="300" preserveAspectRatio="xMidYMid meet" version="1.0"><defs><g/><clipPath id="7aacfacc2d"><path d="M 427 23 L 593.199219 23 L 593.199219 208 L 427 208 Z M 427 23 " clip-rule="nonzero"/></clipPath><clipPath id="d3eefad8e5"><rect x="0" width="167" y="0" height="185"/></clipPath><clipPath id="bb82e47569"><rect x="0" width="594" y="0" height="208"/></clipPath></defs><g transform="matrix(1, 0, 0, 1, 2, 17)"><g clip-path="url(#bb82e47569)"><g fill="#ffffff" fill-opacity="1"><g transform="translate(1.711154, 163.965422)"><g><path d="M 97.71875 -150.125 L 97.71875 -120.09375 L 45.125 -120.09375 L 45.125 -90.25 L 93.71875 -90.25 L 93.71875 -60.234375 L 45.125 -60.234375 L 45.125 0 L 10.921875 0 L 10.921875 -150.125 Z M 97.71875 -150.125 "/></g></g></g><g fill="#ffffff" fill-opacity="1"><g transform="translate(104.887682, 163.965422)"><g><path d="M 45.125 -150.125 L 45.125 0 L 10.921875 0 L 10.921875 -150.125 Z M 45.125 -150.125 "/></g></g></g><g fill="#ffffff" fill-opacity="1"><g transform="translate(160.934196, 163.965422)"><g><path d="M 97.71875 -150.125 L 97.71875 -120.09375 L 45.125 -120.09375 L 45.125 -90.25 L 93.71875 -90.25 L 93.71875 -60.234375 L 45.125 -60.234375 L 45.125 0 L 10.921875 0 L 10.921875 -150.125 Z M 97.71875 -150.125 "/></g></g></g><g fill="#ffffff" fill-opacity="1"><g transform="translate(264.11074, 163.965422)"><g><path d="M 4.1875 -75.15625 C 4.1875 -96.863281 11.582031 -115.238281 26.375 -130.28125 C 41.175781 -145.332031 59.015625 -152.859375 79.890625 -152.859375 C 100.867188 -152.859375 118.695312 -145.363281 133.375 -130.375 C 148.0625 -115.394531 155.40625 -96.988281 155.40625 -75.15625 C 155.40625 -53.195312 148.1875 -34.722656 133.75 -19.734375 C 119.3125 -4.753906 101.359375 2.734375 79.890625 2.734375 C 57.929688 2.734375 39.820312 -4.695312 25.5625 -19.5625 C 11.3125 -34.425781 4.1875 -52.957031 4.1875 -75.15625 Z M 41.125 -75.15625 C 41.125 -67.269531 42.335938 -60.082031 44.765625 -53.59375 C 47.191406 -47.101562 51.4375 -41.613281 57.5 -37.125 C 63.5625 -32.632812 71.023438 -30.390625 79.890625 -30.390625 C 92.617188 -30.390625 102.226562 -34.753906 108.71875 -43.484375 C 115.21875 -52.222656 118.46875 -62.78125 118.46875 -75.15625 C 118.46875 -87.40625 115.160156 -97.925781 108.546875 -106.71875 C 101.929688 -115.519531 92.378906 -119.921875 79.890625 -119.921875 C 67.515625 -119.921875 57.957031 -115.519531 51.21875 -106.71875 C 44.488281 -97.925781 41.125 -87.40625 41.125 -75.15625 Z M 41.125 -75.15625 "/></g></g></g><g clip-path="url(#7aacfacc2d)"><g transform="matrix(1, 0, 0, 1, 427, 23)"><g clip-path="url(#d3eefad8e5)"><g fill="#ffffff" fill-opacity="1"><g transform="translate(1.289374, 141.391839)"><g><path d="M 14.046875 -80.109375 L 14.046875 -109.9375 L 41.6875 -109.9375 L 41.6875 -80.109375 L 58.5625 -80.109375 L 58.5625 -59.03125 L 41.6875 -59.03125 L 41.6875 -33.578125 C 41.6875 -26.179688 43.769531 -22.484375 47.9375 -22.484375 C 48.976562 -22.484375 50.070312 -22.691406 51.21875 -23.109375 C 52.363281 -23.523438 53.25 -23.941406 53.875 -24.359375 L 54.8125 -24.984375 L 61.6875 -2.65625 C 55.75 0.675781 48.976562 2.34375 41.375 2.34375 C 36.175781 2.34375 31.703125 1.429688 27.953125 -0.390625 C 24.203125 -2.210938 21.363281 -4.660156 19.4375 -7.734375 C 17.507812 -10.804688 16.128906 -14.03125 15.296875 -17.40625 C 14.460938 -20.789062 14.046875 -24.410156 14.046875 -28.265625 L 14.046875 -59.03125 L 2.5 -59.03125 L 2.5 -80.109375 Z M 14.046875 -80.109375 "/></g></g></g><g fill="#ffffff" fill-opacity="1"><g transform="translate(62.96928, 141.391839)"><g><path d="M 29.671875 -80.109375 L 49.1875 -36.546875 L 68.703125 -80.109375 L 101.5 -80.109375 L 58.5625 0 L 39.8125 0 L -3.125 -80.109375 Z M 29.671875 -80.109375 "/></g></g></g></g></g></g></g></g></svg>