<svg fill="#ffffff" role="img" viewBox="0 0 24 24" xmlns="http://www.w3.org/2000/svg"><title>Globoplay</title><path d="M11.47,24 A8.81,8.81,0,0,1,6.11,22.36 c-0.54,-0.44,-0.64,-0.78,-0.35,-1.31 c0.21,-0.38,0.39,-0.78,0.58,-1.15 c0.34,-0.68,0.66,-0.79,1.33,-0.4 A7.42,7.42,0,0,0,11.79,20.63 C14.15,20.56,15.04,19.09,14.99,17.08 A4.22,4.22,0,0,1,11.66,18.35 a6.44,6.44,0,0,1,-3.67,-1.21 A6.1,6.1,0,0,1,5.54,11.01 a6.3,6.3,0,0,1,4.67,-5.43 a4.9,4.9,0,0,1,5.06,1.3 c0,-0.58,0.04,-0.95,0.29,-1.14 a2.34,2.34,0,0,1,1.17,-0.18 c1.88,0,1.84,-0.07,1.82,1.23 c0,2.7,0,6.61,0,9.27 C18.55,19.58,17.44,24,11.47,24 m3.67,-12.02 A3.11,3.11,0,0,0,12.06,8.64 a3.08,3.08,0,0,0,-3.22,3.31 c0,2.15,1.36,3.36,3.2,3.38 A3.08,3.08,0,0,0,15.12,11.98 Z"/></svg>