<?xml version="1.0" encoding="UTF-8" standalone="no"?>
<!-- Uploaded to: SVG Repo, www.svgrepo.com, Transformed by: SVG Repo Mixer Tools -->

<svg
   width="800px"
   height="800px"
   viewBox="0 0 24 24"
   fill="none"
   version="1.1"
   id="svg1"
   sodipodi:docname="nuvio.svg"
   inkscape:version="1.4 (e7c3feb100, 2024-10-09)"
   xmlns:inkscape="http://www.inkscape.org/namespaces/inkscape"
   xmlns:sodipodi="http://sodipodi.sourceforge.net/DTD/sodipodi-0.dtd"
   xmlns="http://www.w3.org/2000/svg"
   xmlns:svg="http://www.w3.org/2000/svg">
  <defs
     id="defs1">
    <linearGradient
       id="swatch2"
       inkscape:swatch="solid">
      <stop
         style="stop-color:#000000;stop-opacity:1;"
         offset="0"
         id="stop2" />
    </linearGradient>
  </defs>
  <sodipodi:namedview
     id="namedview1"
     pagecolor="#3d3d3d"
     bordercolor="#000000"
     borderopacity="0.25"
     inkscape:showpageshadow="2"
     inkscape:pageopacity="0.0"
     inkscape:pagecheckerboard="true"
     inkscape:deskcolor="#d1d1d1"
     showguides="true"
     inkscape:zoom="0.69"
     inkscape:cx="59.42029"
     inkscape:cy="527.53623"
     inkscape:window-width="1366"
     inkscape:window-height="734"
     inkscape:window-x="0"
     inkscape:window-y="32"
     inkscape:window-maximized="1"
     inkscape:current-layer="svg1">
    <sodipodi:guide
       position="4.0869565,11.913043"
       orientation="0,-1"
       id="guide2"
       inkscape:locked="false" />
  </sodipodi:namedview>
  <g
     id="SVGRepo_bgCarrier"
     stroke-width="0" />
  <g
     id="SVGRepo_tracerCarrier"
     stroke-linecap="round"
     stroke-linejoin="round" />
  <g
     id="SVGRepo_iconCarrier"
     transform="matrix(0.85234865,0,0,0.85234865,0.47178957,1.9187725)"
     style="fill:none;stroke:#ffffff;stroke-width:3.8716551;stroke-linecap:round;stroke-dasharray:none;stroke-opacity:1;paint-order:normal;stroke-linejoin:round" />
  <g
     id="SVGRepo_iconCarrier-5"
     transform="matrix(0.50803695,0,0,0.50803695,4.5856562,6.0634448)"
     style="fill:none;stroke:#ffffff;stroke-width:1.67437;stroke-linecap:round;stroke-linejoin:round;stroke-dasharray:none;stroke-opacity:1;paint-order:normal">
    <path
       d="m 21.4086,9.35258 c 2.1219,1.15392 2.1219,4.14092 0,5.29482 L 8.59662,21.6145 C 6.53435,22.736 4,21.2763 4,18.9671 V 5.0329 C 4,2.72368 6.53435,1.26402 8.59661,2.38548 Z"
       fill="#ffffff"
       id="path1-3"
       style="fill:none;stroke:#ffffff;stroke-width:1.67437;stroke-linecap:round;stroke-linejoin:round;stroke-dasharray:none;stroke-opacity:1;paint-order:normal" />
  </g>
  <g
     id="g2"
     transform="matrix(0.20090234,0,0,0.20090234,8.1141484,9.725885)"
     style="fill:#ffffff;fill-opacity:1">
    <path
       d="m 21.4086,9.35258 c 2.1219,1.15392 2.1219,4.14092 0,5.29482 L 8.59662,21.6145 C 6.53435,22.736 4,21.2763 4,18.9671 V 5.0329 C 4,2.72368 6.53435,1.26402 8.59661,2.38548 Z"
       fill="#ffffff"
       id="path2"
       style="fill:#ffffff;fill-opacity:1" />
  </g>
  <path
     d="m 18.719381,9.8904315 c 1.808599,0.9835425 1.808599,3.5295075 0,4.5130325 L 7.7991071,20.341863 C 6.041334,21.297772 3.8811842,20.053598 3.8811842,18.085355 v -2.969199 -2.9692 c 0,-0.989732 0,-1.979466 0,-2.9691988 V 6.2085581 c 0,-1.9682606 2.1601498,-3.2123998 3.9179144,-2.2565249 z"
     fill="#ffffff"
     id="path1"
     style="fill:none;stroke:#ffffff;stroke-width:1.98;stroke-linecap:round;stroke-linejoin:round;stroke-dasharray:none;stroke-opacity:1;paint-order:normal"
     sodipodi:nodetypes="cccscccscc" />
  <path
     style="fill:none;fill-opacity:1;stroke:#ffffff;stroke-width:2.01417;stroke-linecap:round;stroke-linejoin:round;stroke-dasharray:none;stroke-opacity:1;paint-order:normal"
     d="m 8.2529807,5.0897981 c -0.1488572,0.068254 -0.2401813,0.0048 -0.3954884,0.032151 -0.053866,0.00948 7.8013457,4.1673836 7.7490387,4.1839666 -0.215885,0.068445 -8.3475546,-4.0553656 -8.5704369,-4.0553656 -0.041678,0 -0.3336292,-0.00108 -0.3346439,0 -0.014341,0.015156 0.014341,0.049145 0,0.064301 -0.028682,0.030311 -0.085408,-0.019171 -0.1216886,0 -0.025654,0.013556 -0.03519,0.050745 -0.060844,0.0643 -0.090701,0.047927 -0.2052294,-0.023248 -0.3042218,0 -0.027999,0.00658 -0.03519,0.050745 -0.060844,0.064301 -0.01814,0.00959 -0.042705,-0.00959 -0.060845,0 -0.025654,0.013556 -0.040563,0.042867 -0.060844,0.0643 -0.020282,0.021434 -0.055219,0.034578 -0.060845,0.064301 -0.00629,0.033231 1.5113951,0.4934348 1.5061231,0.5268638 -0.01635,0.1036707 -1.6307769,-0.2426193 -1.6582343,-0.1410593 -0.011143,0.041217 0.00984,0.087014 0,0.1286015 -0.010999,0.046496 -0.051007,0.081816 -0.060844,0.1286016 -0.011,0.052308 0.012297,0.1087678 0,0.1607518 -0.00887,0.037486 -0.0508,0.059298 -0.060845,0.096451 -0.011143,0.041217 0.1972896,1.3484287 0.1844626,1.3890962 C 5.8416212,7.989315 6.3785792,7.0920286 6.3136795,7.1263216 6.172691,7.2008196 5.3566553,6.9954311 5.2716074,7.1152703 c -0.017209,0.024249 -0.048017,0.037189 -0.060845,0.064301 -0.01814,0.038341 0,0.085734 0,0.1286015 -0.050704,0.1393186 0.3740461,-0.2802434 -0.1521111,0.4179556 -0.045009,0.059726 0.4966659,8.4777626 0.4919004,8.4028966 L 5.0586513,8.4012866 5.9194769,9.1897752 c 0.2969456,0.2719926 -0.8316266,1.1894878 -0.8608256,1.5906408 -0.00397,0.05448 -0.026456,0.106267 -0.030422,0.160752 -0.017889,0.24576 0,0.492972 0,0.739458 v 1.060963"
     id="path8"
     sodipodi:nodetypes="ccsscssccccsssscccssssscsscscssc" />
  <path
     style="fill:none;fill-opacity:1;stroke:#ffffff;stroke-width:1.98;stroke-linecap:round;stroke-linejoin:round;stroke-dasharray:none;stroke-opacity:1;paint-order:normal"
     d="m 8.3930502,4.5808221 c 0.245349,0.081783 0.3348834,0.1059543 0.6148752,0.2459502 0.025925,0.012963 0.036633,0.046575 0.061488,0.061488 0.078598,0.047159 0.1688475,0.073409 0.2459502,0.1229751 0.1691649,0.1087488 0.3262314,0.252957 0.4919004,0.3689253 0.1702191,0.1191534 0.367591,0.2760267 0.553387,0.3689253 0.01833,0.00917 0.04443,-0.011369 0.06149,0 0.04824,0.032156 0.0766,0.088192 0.122975,0.1229751 0.03666,0.027498 0.08484,0.036065 0.122975,0.061487 0.113232,0.075488 0.216726,0.1765467 0.338182,0.2459502 0.07958,0.045476 0.172622,0.067979 0.24595,0.1229751 0.04638,0.034783 0.07382,0.092251 0.122975,0.1229751 0.03583,0.022394 0.08714,0.00835 0.122975,0.030744 0.04916,0.030725 0.0766,0.088192 0.122975,0.1229751 0.151857,0.1138929 0.362224,0.2071749 0.522644,0.3074379 0.04916,0.030724 0.07113,0.097049 0.122975,0.1229751 0.03667,0.018332 0.08198,0 0.122976,0"
     id="path9" />
  <path
     style="fill:none;fill-opacity:1;stroke:#ffffff;stroke-width:1.98;stroke-linecap:round;stroke-linejoin:round;stroke-dasharray:none;stroke-opacity:1;paint-order:normal"
     d="m 13.988417,7.8089184 c 0.553186,0.060988 1.166225,0.1389756 1.537188,0.5841318 0.164428,0.1973127 0.392555,1.411118 0.584132,1.6601638 0.06149,0.07174 -0.24595,-1.2092554 -0.184463,-1.1375197 0.0205,0.040992 0.03399,0.086311 0.06149,0.1229751 0.03478,0.046377 0.09082,0.07474 0.122975,0.1229751 0.01137,0.017054 -0.01137,0.044434 0,0.061487 0.0921,0.1381476 0.25484,0.2240958 0.368925,0.3381816 0.123402,0.1234014 0.229163,0.2633949 0.338182,0.399669 0.04616,0.057705 0.413852,2.3412449 0.461157,2.3980149 0.100851,0.121021 0.149888,-1.774168 0.307437,-1.721652 0.01944,0.0065 0.04204,-0.0065 0.06149,0 0.04348,0.01449 0.07851,0.05037 0.122975,0.06149 0.06369,0.01592 0.175445,0 0.24595,0"
     id="path10"
     sodipodi:nodetypes="cscccscssccccc" />
  <path
     style="fill:none;fill-opacity:1;stroke:#ffffff;stroke-width:1.98;stroke-linecap:round;stroke-linejoin:round;stroke-dasharray:none;stroke-opacity:1;paint-order:normal"
     d="m 12.266765,7.0403241 c 0.02686,0.2162031 0.175637,0.014612 0.245951,0.061487 0.04823,0.032157 0.0766,0.088192 0.122975,0.1229751 0.03666,0.027498 0.0795,0.046995 0.122975,0.061488 0.01944,0.00648 0.04606,-0.013497 0.06149,0 0.0711,0.062216 0.114235,0.1520019 0.184462,0.2152062 0.03407,0.030659 0.08411,0.037198 0.122975,0.061488 0.04345,0.027157 0.08198,0.061487 0.122975,0.092231 0.04099,0.040992 0.07474,0.090818 0.122975,0.1229751 0.122085,0.08139 0.277584,0.1030725 0.399669,0.1844625 0.142164,0.094776 0.108508,0.1712007 0.276694,0.2459502 0.03746,0.016648 0.08459,-0.014393 0.122975,0 0.132121,0.049545 0.195882,0.2023236 0.307438,0.2766939 -0.03866,0.1006536 0.15763,0.048071 0.184463,0.061488 0.07048,0.035243 0.384721,0.3074376 0.399669,0.3074376"
     id="path11" />
  <path
     style="fill:none;fill-opacity:1;stroke:#ffffff;stroke-width:1.98;stroke-linecap:round;stroke-linejoin:round;stroke-dasharray:none;stroke-opacity:1;paint-order:normal"
     d="m 18.876677,10.944783 -1.13752,3.043634"
     id="path12"
     sodipodi:nodetypes="cc" />
  <path
     style="fill:none;fill-opacity:1;stroke:#ffffff;stroke-width:1.98;stroke-linecap:round;stroke-linejoin:round;stroke-dasharray:none;stroke-opacity:1;paint-order:normal"
     d="m 13.784821,15.792655 3.146102,-2.121321"
     id="path13" />
  <path
     style="fill:none;fill-opacity:1;stroke:#ffffff;stroke-width:1.98;stroke-linecap:round;stroke-linejoin:round;stroke-dasharray:none;stroke-opacity:1;paint-order:normal"
     d="m 14.634036,15.802299 c -0.381265,0.149339 -0.651829,0.474276 -0.953057,0.737851 -0.131337,0.114919 -0.239264,0.269436 -0.399669,0.338181 -0.382934,0.164115 -0.74738,0.316315 -1.168263,0.368926 -0.178393,0.0223 -0.381794,0.02983 -0.553388,0.09223 -0.02724,0.0099 -0.03556,0.04853 -0.06149,0.06149 -0.01833,0.0092 -0.04699,-0.01449 -0.06149,0 -0.01449,0.01449 0,0.04099 0,0.06149"
     id="path14" />
  <path
     style="fill:none;fill-opacity:1;stroke:#ffffff;stroke-width:1.98;stroke-linecap:round;stroke-linejoin:round;stroke-dasharray:none;stroke-opacity:1;paint-order:normal"
     d="m 4.7345412,13.619491 c -0.04624,0.128148 0.0289,0.269619 0,0.399669 -0.00994,0.04474 -0.053953,0.07777 -0.061488,0.122976 -0.023587,0.141519 0,0.286941 0,0.430413 0,0.206555 -0.035116,0.496409 0,0.707106 0.010655,0.06393 0.049543,0.12076 0.061488,0.184463 0.01898,0.101226 0.014681,0.205708 0.030744,0.307438 0.014735,0.09332 0.045299,0.18361 0.061487,0.276693 0.040992,0.235703 0.083644,0.471122 0.1229751,0.707107 0.049406,0.296438 -2.7e-4,0.245171 0.092231,0.522644 0.014493,0.04348 0.045395,0.08006 0.061487,0.122976 0.048007,0.128019 0.071441,0.264534 0.092231,0.399669 0.00623,0.04051 -0.012963,0.08409 0,0.122975 0.00917,0.0275 0.048525,0.03556 0.061488,0.06149 0.00917,0.01833 -0.00917,0.04316 0,0.06149 0.012963,0.02593 0.045409,0.03737 0.061487,0.06149 0.063555,0.09533 0.1125888,0.2005 0.1537188,0.307438 0.026782,0.06963 0.045303,0.142377 0.061488,0.215207 0.00854,0.03843 -0.01281,0.121694 0,0.153718 0.010765,0.02691 0.052321,0.03399 0.061487,0.06149 0.012963,0.03889 -0.00994,0.08321 0,0.122975 0.03374,0.134961 0.1316058,0.140236 0.1844628,0.24595 0.040992,0.08198 -0.061488,0.06149 0.061487,0.06149"
     id="path15" />
  <path
     style="fill:none;fill-opacity:1;stroke:#ffffff;stroke-width:2.80983;stroke-linecap:round;stroke-linejoin:round;stroke-dasharray:none;stroke-opacity:1;paint-order:normal"
     d="m 12.195266,16.491402 c -0.40317,0.415085 -0.880101,0.734336 -1.294976,1.128876 -0.185877,0.03276 -0.17536,0.26654 -0.283275,0.376292 -0.206321,0.209833 -0.477111,0.239527 -0.6879566,0.423329 -0.061045,0.05321 -0.090651,0.156305 -0.161872,0.188145 -0.1140099,0.05096 -0.2444333,0.01919 -0.364212,0.04703 -0.2767043,0.06432 -0.5308194,0.293284 -0.8093601,0.329257 -0.08044,0.01039 -0.1632584,-0.01733 -0.2428082,0 -0.1384203,0.03016 -0.2674537,0.104293 -0.4046798,0.141108 -0.039431,0.01056 -0.081723,-0.0092 -0.1214037,0 -0.096297,0.02238 -0.1874106,0.0693 -0.2832756,0.09408 -0.052673,0.01362 -0.116977,-0.03479 -0.1618721,0 -0.022999,0.01782 -0.078376,0.191121 -0.161872,0.09407 -0.042657,-0.04959 -0.03828,-0.138567 -0.080936,-0.188145 C 7.0514527,19.026291 6.9072364,19.02491 6.8130227,18.937308 6.7423626,18.8716 6.7418135,18.742602 6.6916187,18.65509 6.5873628,18.473323 6.4539665,18.290783 6.3678747,18.090651 c -0.012071,-0.02805 0.019077,-0.07189 0,-0.09408 -0.019077,-0.02217 -0.053958,0 -0.080935,0"
     id="path16" />
  <path
     style="fill:none;fill-opacity:1;stroke:#ffffff;stroke-width:2.33084;stroke-linecap:round;stroke-linejoin:round;stroke-dasharray:none;stroke-opacity:1;paint-order:normal"
     d="m 5.6500184,17.004538 c 0.1589866,0.411962 0.3942469,1.054691 0.6692453,1.27215 0.031866,0.02519 0.069107,-0.01109 0.1029609,0 0.104352,0.03438 0.2045301,0.118278 0.3088824,0.152656 0.05148,0.01696 0.1029608,-0.03393 0.1544411,0 0.023023,0.01523 0.029774,0.08031 0.051481,0.101776 0.028966,0.02863 0.1541766,-0.0508 0.154441,-0.05088 0.1201111,-0.03957 0.2626578,0 0.3861031,0"
     id="path17" />
</svg>
